<svg width="461" height="61" viewBox="0 0 461 61" fill="none" xmlns="http://www.w3.org/2000/svg">
<path d="M34.207 38.6406H12.7617L7.94531 52H0.984375L20.5312 0.8125H26.4375L46.0195 52H39.0938L34.207 38.6406ZM14.8008 33.0859H32.2031L23.4844 9.14453L14.8008 33.0859ZM91.582 28.0586C91.582 33.0039 90.7969 37.2695 89.2266 40.8555C87.6562 44.418 85.4531 47.207 82.6172 49.2227L91.7578 56.3945L87.1523 60.6484L76.3594 52.0703C74.6719 52.4922 72.8906 52.7031 71.0156 52.7031C66.9844 52.7031 63.4102 51.7188 60.293 49.75C57.1758 47.7578 54.75 44.9336 53.0156 41.2773C51.3047 37.5977 50.4258 33.3438 50.3789 28.5156V24.8242C50.3789 19.9023 51.2344 15.5547 52.9453 11.7812C54.6562 8.00781 57.0703 5.125 60.1875 3.13281C63.3281 1.11719 66.9141 0.109375 70.9453 0.109375C75.0703 0.109375 78.6914 1.10547 81.8086 3.09766C84.9492 5.08984 87.3633 7.96094 89.0508 11.7109C90.7383 15.4375 91.582 19.7969 91.582 24.7891V28.0586ZM84.832 24.7539C84.832 18.7305 83.625 14.0898 81.2109 10.832C78.8203 7.55078 75.3984 5.91016 70.9453 5.91016C66.7031 5.91016 63.3516 7.53906 60.8906 10.7969C58.4531 14.0312 57.1992 18.5312 57.1289 24.2969V28.0586C57.1289 33.918 58.3477 38.5352 60.7852 41.9102C63.2461 45.2852 66.6562 46.9727 71.0156 46.9727C75.375 46.9727 78.75 45.3906 81.1406 42.2266C83.5312 39.0391 84.7617 34.4805 84.832 28.5508V24.7539ZM138.023 0.8125V35.6172C138 40.4453 136.477 44.3945 133.453 47.4648C130.453 50.5352 126.375 52.2578 121.219 52.6328L119.426 52.7031C113.824 52.7031 109.359 51.1914 106.031 48.168C102.703 45.1445 101.016 40.9844 100.969 35.6875V0.8125H107.648V35.4766C107.648 39.1797 108.668 42.0625 110.707 44.125C112.746 46.1641 115.652 47.1836 119.426 47.1836C123.246 47.1836 126.164 46.1641 128.18 44.125C130.219 42.0859 131.238 39.2148 131.238 35.5117V0.8125H138.023ZM176.168 38.6406H154.723L149.906 52H142.945L162.492 0.8125H168.398L187.98 52H181.055L176.168 38.6406ZM156.762 33.0859H174.164L165.445 9.14453L156.762 33.0859ZM221.449 0.8125L238.184 42.5781L254.918 0.8125H263.672V52H256.922V32.0664L257.555 10.5508L240.75 52H235.582L218.812 10.6562L219.48 32.0664V52H212.73V0.8125H221.449ZM311.625 0.8125V35.6172C311.602 40.4453 310.078 44.3945 307.055 47.4648C304.055 50.5352 299.977 52.2578 294.82 52.6328L293.027 52.7031C287.426 52.7031 282.961 51.1914 279.633 48.168C276.305 45.1445 274.617 40.9844 274.57 35.6875V0.8125H281.25V35.4766C281.25 39.1797 282.27 42.0625 284.309 44.125C286.348 46.1641 289.254 47.1836 293.027 47.1836C296.848 47.1836 299.766 46.1641 301.781 44.125C303.82 42.0859 304.84 39.2148 304.84 35.5117V0.8125H311.625ZM361.617 52H354.832L329.062 12.5547V52H322.277V0.8125H329.062L354.902 40.4336V0.8125H361.617V52ZM373.605 52V0.8125H388.055C392.508 0.8125 396.445 1.79688 399.867 3.76562C403.289 5.73438 405.926 8.53516 407.777 12.168C409.652 15.8008 410.602 19.9727 410.625 24.6836V27.9531C410.625 32.7812 409.688 37.0117 407.812 40.6445C405.961 44.2773 403.301 47.0664 399.832 49.0117C396.387 50.957 392.367 51.9531 387.773 52H373.605ZM380.355 6.36719V46.4805H387.457C392.66 46.4805 396.703 44.8633 399.586 41.6289C402.492 38.3945 403.945 33.7891 403.945 27.8125V24.8242C403.945 19.0117 402.574 14.5 399.832 11.2891C397.113 8.05469 393.246 6.41406 388.23 6.36719H380.355ZM448.348 38.6406H426.902L422.086 52H415.125L434.672 0.8125H440.578L460.16 52H453.234L448.348 38.6406ZM428.941 33.0859H446.344L437.625 9.14453L428.941 33.0859Z" fill="url(#paint0_radial)"/>
<defs>
<radialGradient id="paint0_radial" cx="0" cy="0" r="1" gradientUnits="userSpaceOnUse" gradientTransform="translate(253.5 -84.18) rotate(91.5024) scale(281.617 1415.37)">
<stop stop-color="#76C893"/>
<stop offset="1" stop-color="#1A759F" stop-opacity="0.5"/>
</radialGradient>
</defs>
</svg>
