<svg width="688" height="332" viewBox="0 0 688 332" fill="none" xmlns="http://www.w3.org/2000/svg">
<path d="M169.617 107.891H110.047L96.668 145H77.332L131.629 2.8125H148.035L202.43 145H183.191L169.617 107.891ZM115.711 92.4609H164.051L139.832 25.957L115.711 92.4609ZM328.992 78.4961C328.992 92.2331 326.811 104.082 322.449 114.043C318.087 123.939 311.967 131.686 304.09 137.285L329.48 157.207L316.688 169.023L286.707 145.195C282.02 146.367 277.072 146.953 271.863 146.953C260.665 146.953 250.737 144.219 242.078 138.75C233.419 133.216 226.681 125.371 221.863 115.215C217.111 104.993 214.669 93.1771 214.539 79.7656V69.5117C214.539 55.8398 216.915 43.763 221.668 33.2812C226.421 22.7995 233.126 14.7917 241.785 9.25781C250.509 3.65885 260.47 0.859375 271.668 0.859375C283.126 0.859375 293.185 3.6263 301.844 9.16016C310.568 14.694 317.273 22.6693 321.961 33.0859C326.648 43.4375 328.992 55.5469 328.992 69.4141V78.4961ZM310.242 69.3164C310.242 52.5846 306.889 39.694 300.184 30.6445C293.543 21.5299 284.038 16.9727 271.668 16.9727C259.884 16.9727 250.574 21.4974 243.738 30.5469C236.967 39.5312 233.484 52.0312 233.289 68.0469V78.4961C233.289 94.7721 236.674 107.598 243.445 116.973C250.281 126.348 259.754 131.035 271.863 131.035C283.973 131.035 293.348 126.641 299.988 117.852C306.629 108.997 310.047 96.3346 310.242 79.8633V69.3164ZM457.996 2.8125V99.4922C457.931 112.904 453.699 123.874 445.301 132.402C436.967 140.931 425.639 145.716 411.316 146.758L406.336 146.953C390.776 146.953 378.374 142.754 369.129 134.355C359.884 125.957 355.197 114.401 355.066 99.6875V2.8125H373.621V99.1016C373.621 109.388 376.453 117.396 382.117 123.125C387.781 128.789 395.854 131.621 406.336 131.621C416.948 131.621 425.053 128.789 430.652 123.125C436.316 117.461 439.148 109.486 439.148 99.1992V2.8125H457.996ZM563.953 107.891H504.383L491.004 145H471.668L525.965 2.8125H542.371L596.766 145H577.527L563.953 107.891ZM510.047 92.4609H558.387L534.168 25.957L510.047 92.4609ZM24.5 187.812L70.9844 303.828L117.469 187.812H141.785V330H123.035V274.629L124.793 214.863L78.1133 330H63.7578L17.1758 215.156L19.0312 274.629V330H0.28125V187.812H24.5ZM274.988 187.812V284.492C274.923 297.904 270.691 308.874 262.293 317.402C253.96 325.931 242.632 330.716 228.309 331.758L223.328 331.953C207.768 331.953 195.366 327.754 186.121 319.355C176.876 310.957 172.189 299.401 172.059 284.688V187.812H190.613V284.102C190.613 294.388 193.445 302.396 199.109 308.125C204.773 313.789 212.846 316.621 223.328 316.621C233.94 316.621 242.046 313.789 247.645 308.125C253.309 302.461 256.141 294.486 256.141 284.199V187.812H274.988ZM413.855 330H395.008L323.426 220.43V330H304.578V187.812H323.426L395.203 297.871V187.812H413.855V330ZM447.156 330V187.812H487.293C499.663 187.812 510.6 190.547 520.105 196.016C529.611 201.484 536.935 209.264 542.078 219.355C547.286 229.447 549.923 241.035 549.988 254.121V263.203C549.988 276.615 547.384 288.366 542.176 298.457C537.033 308.548 529.643 316.296 520.008 321.699C510.438 327.103 499.272 329.87 486.512 330H447.156ZM465.906 203.242V314.668H485.633C500.086 314.668 511.316 310.176 519.324 301.191C527.397 292.207 531.434 279.414 531.434 262.812V254.512C531.434 238.366 527.625 225.833 520.008 216.914C512.456 207.93 501.714 203.372 487.781 203.242H465.906ZM654.773 292.891H595.203L581.824 330H562.488L616.785 187.812H633.191L687.586 330H668.348L654.773 292.891ZM600.867 277.461H649.207L624.988 210.957L600.867 277.461Z" fill="url(#paint0_radial)"/>
<defs>
<radialGradient id="paint0_radial" cx="0" cy="0" r="1" gradientUnits="userSpaceOnUse" gradientTransform="translate(337 -282.26) rotate(90.7521) scale(1142.74 2876.14)">
<stop stop-color="#76C893"/>
<stop offset="1" stop-color="#1A759F" stop-opacity="0.5"/>
</radialGradient>
</defs>
</svg>
